<svg width="26" height="30" viewBox="0 0 26 30" fill="none" xmlns="http://www.w3.org/2000/svg">
<path fill-rule="evenodd" clip-rule="evenodd" d="M-1.87337e-07 25.7142L-3.74667e-07 21.4286L-3.74671e-07 21.4285L-5.62002e-07 17.1429L4.2854 17.1429L4.28571 17.1429L8.57111 17.1429L8.57111 21.4285L8.57111 21.4286L8.57111 25.7142L4.28571 25.7142L4.2854 25.7142L-1.87337e-07 25.7142ZM4.2854 30L4.2854 25.7143L8.57111 25.7143L8.57111 30L4.2854 30ZM8.57153 25.7142L8.57153 21.4287L8.57153 21.4285L8.57153 17.143L12.8572 17.143L12.8572 17.143L17.1426 17.143L17.1426 17.1429L17.1426 17.1429L17.1426 17.1428L12.8572 17.1428L12.8572 17.1428L8.57153 17.1428L8.57153 12.8571L12.8572 12.8571L12.8572 12.8571L17.1426 12.8571L17.1426 12.8571L12.8572 12.8571L12.8572 12.8571L8.57153 12.8571L8.57153 8.57136L12.8572 8.57136L12.8572 8.57136L17.1429 8.57136L17.1429 8.57144L21.4283 8.57144L21.4283 12.8572L17.1429 12.8572L17.1429 12.8572L21.4283 12.8572L21.4283 17.1429L21.4283 17.1429L21.4283 21.4286L17.1429 21.4286L17.1429 21.4287L17.1429 25.7142L12.8572 25.7142L12.8572 25.7142L8.57153 25.7142ZM4.2854 12.8571L4.2854 17.1428L8.57111 17.1428L8.57111 12.8571L4.2854 12.8571ZM-9.36674e-07 8.57139L-7.49341e-07 12.8571L4.2854 12.8571L4.28571 12.8571L8.57111 12.8571L8.57111 8.57136L4.28571 8.57137L4.28571 8.57131L8.57111 8.57131L8.57111 4.28577L8.57111 4.2856L8.57111 5.30311e-05L4.2854 5.32184e-05L4.2854 4.2856L4.2854 4.28567L-1.12401e-06 4.28567L-9.36675e-07 8.57137L-9.36674e-07 8.57139ZM8.57153 4.28577L8.57153 8.57131L12.8572 8.57131L12.8572 8.57131L17.1429 8.57131L17.1429 4.2856L12.8572 4.2856L12.8572 5.28438e-05L8.57153 5.30311e-05L8.57153 4.2856L8.57153 4.28577ZM21.4285 17.1429L21.4285 12.8572L25.7142 12.8572L25.7142 17.1429L21.4285 17.1429ZM8.57153 25.7143L8.57153 30L12.8572 30L12.8572 25.7143L8.57153 25.7143Z" fill="#DF6380"/>
</svg>
