<svg width="220" height="200" viewBox="0 0 220 200" fill="none" xmlns="http://www.w3.org/2000/svg">
<rect x="80" y="160" width="20" height="20" fill="#DF6380"/>
<rect x="60" y="140" width="20" height="20" fill="#DF6380"/>
<rect x="40" y="120" width="20" height="20" fill="#DF6380"/>
<rect x="20" y="100" width="20" height="20" fill="#DF6380"/>
<rect y="80" width="20" height="20" fill="#DF6380"/>
<rect y="60" width="20" height="20" fill="#DF6380"/>
<rect y="40" width="20" height="20" fill="#DF6380"/>
<rect x="20" y="20" width="20" height="20" fill="#DF6380"/>
<rect x="40" width="20" height="20" fill="#DF6380"/>
<rect x="60" width="20" height="20" fill="#DF6380"/>
<rect x="80" y="20" width="20" height="20" fill="#DF6380"/>
<rect x="100" y="40" width="20" height="20" fill="#DF6380"/>
<rect x="120" y="20" width="20" height="20" fill="#DF6380"/>
<rect x="140" width="20" height="20" fill="#DF6380"/>
<rect x="160" width="20" height="20" fill="#DF6380"/>
<rect x="180" y="20" width="20" height="20" fill="#DF6380"/>
<rect x="200" y="40" width="20" height="20" fill="#DF6380"/>
<rect x="100" y="180" width="20" height="20" fill="#DF6380"/>
<rect x="120" y="160" width="20" height="20" fill="#DF6380"/>
<rect x="140" y="140" width="20" height="20" fill="#DF6380"/>
<rect x="160" y="120" width="20" height="20" fill="#DF6380"/>
<rect x="180" y="100" width="20" height="20" fill="#DF6380"/>
<rect x="200" y="80" width="20" height="20" fill="#DF6380"/>
<rect x="200" y="60" width="20" height="20" fill="#DF6380"/>
</svg>
