<svg width="70" height="64" viewBox="0 0 70 64" fill="none" xmlns="http://www.w3.org/2000/svg">
<path fill-rule="evenodd" clip-rule="evenodd" d="M38.1819 0.0908813H31.8182V6.45452L38.1818 6.4545V12.8181H44.5454V6.4545L38.1819 6.45452V0.0908813ZM25.4545 12.8182H19.0909V19.1818H12.7273V25.5454H19.0909H19.091H25.4545V19.1818V19.1818V12.8182ZM25.4545 6.4545H31.8181V12.8181H25.4545V6.4545ZM12.7272 19.1818H6.36357V25.5454H12.7272V19.1818ZM0 25.5454H6.36364V31.909H12.7272V38.2727H6.36357V31.9091H0V25.5454ZM12.7273 51V44.6363V38.2727H19.091V44.6363V51H12.7273ZM19.091 57.3636V51H12.7273V57.3636L19.0909 57.3636V63.7272H25.4545V57.3636L31.8181 57.3636V51H25.4545V57.3636H19.091ZM50.9092 12.8182H44.5455V19.1818V25.5454H50.9091H50.9092H57.2727H57.2727H63.6363V19.1818H57.2727H57.2727L50.9092 19.1818V12.8182ZM63.6364 25.5454H70.0001V31.9091H63.6364V25.5454ZM63.6363 31.909H57.2727V38.2727H63.6363V31.909ZM57.2727 38.2727H50.9091V44.6363V51H57.2727V44.6363V38.2727ZM38.1819 44.6363H31.8182V51H38.1819V44.6363ZM57.2727 51V57.3636L50.9092 57.3636V63.7272H44.5455V57.3636L50.9091 57.3636V51H57.2727ZM44.5454 51H38.1818V57.3636H44.5454V51Z" fill="#DF6380"/>
</svg>
